# xmcd CD database file
#
# Track frame offsets:
#	150
#	18827
#	38941
#	61069
#	82745
#	103145
#	119872
#	138848
#	160727
#	182628
#
# Disc length: 2657 seconds
#
# Revision: 1
# Processed by: cddbd v1.5.2PL0 Copyright (c) Steve Scherf et al.
# Submitted via: CDex 1.51
#
DISCID=790a5f0a
DTITLE=Gunther Tiedemann and David Plate - Duo
DYEAR=2003
DGENRE=Jazz
TTITLE0=snake flakes
TTITLE1=I can't give you anything! but laugh, baby
TTITLE2=rain of tears
TTITLE3=polkabees and moonbobs
TTITLE4=too much is just right
TTITLE5=times're changing
TTITLE6=under the stones
TTITLE7=tango
TTITLE8=country air
TTITLE9=verdades de los suenos
EXTD=YEAR: 2003
EXTT0=
EXTT1=
EXTT2=
EXTT3=
EXTT4=
EXTT5=
EXTT6=
EXTT7=
EXTT8=
EXTT9=
PLAYORDER=
